<?xml version="1.0" encoding="UTF-8" standalone="no"?>
<!-- Created with Inkscape (http://www.inkscape.org/) -->
<svg
   xmlns:dc="http://purl.org/dc/elements/1.1/"
   xmlns:cc="http://creativecommons.org/ns#"
   xmlns:rdf="http://www.w3.org/1999/02/22-rdf-syntax-ns#"
   xmlns:svg="http://www.w3.org/2000/svg"
   xmlns="http://www.w3.org/2000/svg"
   xmlns:sodipodi="http://sodipodi.sourceforge.net/DTD/sodipodi-0.dtd"
   xmlns:inkscape="http://www.inkscape.org/namespaces/inkscape"
   width="250"
   height="250"
   id="svg2520"
   sodipodi:version="0.32"
   inkscape:version="0.46"
   version="1.0"
   sodipodi:docname="Mushroom Universe.svg"
   inkscape:output_extension="org.inkscape.output.svg.inkscape">
  <defs
     id="defs2522">
    <inkscape:perspective
       sodipodi:type="inkscape:persp3d"
       inkscape:vp_x="0 : 526.18109 : 1"
       inkscape:vp_y="0 : 1000 : 0"
       inkscape:vp_z="744.09448 : 526.18109 : 1"
       inkscape:persp3d-origin="372.04724 : 350.78739 : 1"
       id="perspective2528" />
  </defs>
  <sodipodi:namedview
     id="base"
     pagecolor="#ffffff"
     bordercolor="#666666"
     borderopacity="1.0"
     gridtolerance="10000"
     guidetolerance="10"
     objecttolerance="10"
     inkscape:pageopacity="0.0"
     inkscape:pageshadow="2"
     inkscape:zoom="1"
     inkscape:cx="125"
     inkscape:cy="125"
     inkscape:document-units="px"
     inkscape:current-layer="layer1"
     showgrid="false"
     inkscape:window-width="1280"
     inkscape:window-height="780"
     inkscape:window-x="-8"
     inkscape:window-y="-8" />
  <metadata
     id="metadata2525">
    <rdf:RDF>
      <cc:Work
         rdf:about="">
        <dc:format>image/svg+xml</dc:format>
        <dc:type
           rdf:resource="http://purl.org/dc/dcmitype/StillImage" />
      </cc:Work>
    </rdf:RDF>
  </metadata>
  <g
     inkscape:label="Layer 1"
     inkscape:groupmode="layer"
     id="layer1"
     transform="translate(119.28572,-401.64789)">
    <path
       id="path3401"
       style="fill:#000000;fill-opacity:1;fill-rule:nonzero;stroke:none;stroke-width:1;stroke-linecap:butt;stroke-linejoin:miter;marker:none;marker-start:none;marker-mid:none;marker-end:none;stroke-miterlimit:4;stroke-dashoffset:0;stroke-opacity:1;visibility:visible;display:inline;overflow:visible;enable-background:accumulate;opacity:0.5"
       d="M -6.28401,570.9325 C -6.28401,577.9168 -8.82503,583.58521 -11.95592,583.58521 C -15.08681,583.58521 -17.62782,577.9168 -17.62782,570.9325 C -17.62782,563.94821 -15.08681,558.2798 -11.95592,558.2798 C -8.82503,558.2798 -6.28401,563.94821 -6.28401,570.9325 z M 28.62,570.9325 C 28.62,577.9168 26.07898,583.58521 22.94809,583.58521 C 19.8172,583.58521 17.27619,577.9168 17.27619,570.9325 C 17.27619,563.94821 19.8172,558.2798 22.94809,558.2798 C 26.07898,558.2798 28.62,563.94821 28.62,570.9325 z M 5.40919,607.05427 C 31.20769,608.49824 52.98894,602.55089 55.29163,580.52302 C 73.62632,569.63714 85.38538,551.5042 85.38538,526.21052 C 85.38538,482.0168 49.5166,446.14801 5.40919,446.14802 C -38.69822,446.14801 -74.567,482.0168 -74.567,526.21052 C -74.567,551.5042 -62.80794,569.63714 -44.47325,580.52302 C -42.17056,602.55089 -20.38931,608.49824 5.40919,607.05427 z M 5.40919,531.24177 C -14.58034,531.24177 -30.72324,515.01254 -30.72325,495.02302 C -30.72325,475.03349 -14.49403,458.80425 5.40919,458.80427 C 25.31241,458.80425 41.54163,475.03349 41.54163,495.02302 C 41.54162,515.01254 25.39872,531.24177 5.40919,531.24177 z M -57.91075,490.99177 C -54.37717,496.58245 -52.317,503.17478 -52.317,510.27302 C -52.31699,521.51713 -57.45526,531.59804 -65.5045,538.24177 C -66.28952,534.25389 -66.72325,530.04263 -66.72325,525.55427 C -66.72325,513.03439 -63.52493,501.25982 -57.91075,490.99177 z M 68.72913,490.99177 C 74.34331,501.25982 77.54163,513.03439 77.54163,525.55427 C 77.54163,530.04263 77.1079,534.25389 76.32288,538.24177 C 68.27364,531.59804 63.13537,521.51713 63.13538,510.27302 C 63.13538,503.17478 65.19555,496.58245 68.72913,490.99177 z M 5.32288,601.02302 C -20.23965,601.02302 -40.24631,590.79695 -37.47325,576.61677 C -34.8848,563.38058 -18.22702,552.17927 5.32288,552.17927 C 28.87278,552.17927 45.53056,563.38058 48.11901,576.61677 C 50.89207,590.79695 30.88541,601.02302 5.32288,601.02302 z" />
  </g>
</svg>
